<svg xmlns="http://www.w3.org/2000/svg" viewBox="0 0 512 512"><rect width="512" height="512" rx="104" fill="#0C231C"/><defs>
<linearGradient id="gold" x1="0" y1="0" x2="0" y2="1">
  <stop offset="0" stop-color="#E6CB85"/>
  <stop offset=".55" stop-color="#C8A24B"/>
  <stop offset="1" stop-color="#A8843C"/>
</linearGradient>
</defs>
<circle cx="256" cy="256" r="234" fill="none" stroke="#C8A24B" stroke-width="4"/>
<circle cx="256" cy="256" r="216" fill="none" stroke="#C8A24B" stroke-width="1.5" opacity=".55"/>
<circle cx="256" cy="22"  r="7" fill="#C8A24B"/>
<circle cx="256" cy="490" r="7" fill="#C8A24C"/>
<g fill="url(#gold)">
  <path transform="translate(118,322) scale(0.104,-0.104)" d="M348 569H939L944 465H341ZM465 46Q465 25 450.5 12.5Q436 0 404 0H90Q59 0 44.0 12.5Q29 25 29 46Q29 61 37.5 71.5Q46 82 68 93L101 106Q131 121 147.5 145.0Q164 169 183 230L503 1208Q516 1252 510.0 1271.5Q504 1291 469 1303Q441 1312 430.0 1324.5Q419 1337 419 1355Q419 1376 434.0 1388.0Q449 1400 481 1400H969Q1001 1400 1016.0 1388.0Q1031 1376 1031 1355Q1031 1336 1019.5 1324.0Q1008 1312 983 1304Q956 1296 951.0 1281.0Q946 1266 957 1232L1297 207Q1313 157 1331.0 133.5Q1349 110 1382 100Q1411 89 1421.0 77.0Q1431 65 1431 46Q1431 25 1416.0 12.5Q1401 0 1369 0H928Q897 0 882.0 12.5Q867 25 867 46Q867 64 877.5 75.0Q888 86 910 93L967 105Q993 113 992.0 131.0Q991 149 979 188L625 1280L658 1300L315 246Q302 205 302.0 178.5Q302 152 318.5 135.5Q335 119 369 105L423 92Q443 84 454.0 74.0Q465 64 465 46Z"/>
  <path transform="translate(257.99199999999996,322) scale(0.104,-0.104)" d="M447 753H764Q826 753 851.5 777.0Q877 801 890 871Q896 895 908.5 907.0Q921 919 940 920Q978 922 989 877L1066 580Q1072 554 1065.5 538.5Q1059 523 1038 516Q1018 510 1000.5 516.0Q983 522 971 541Q944 587 920.5 611.5Q897 636 868.0 645.0Q839 654 794 654H447ZM104 1354Q104 1376 119.0 1388.0Q134 1400 165 1400H925Q961 1400 984.5 1410.0Q1008 1420 1028.5 1430.0Q1049 1440 1076 1440Q1106 1440 1121.5 1423.0Q1137 1406 1149 1367L1229 1086Q1236 1061 1228.0 1044.0Q1220 1027 1198 1020Q1173 1012 1153.0 1021.0Q1133 1030 1120 1055Q1082 1133 1049.5 1181.5Q1017 1230 984.0 1255.5Q951 1281 912.5 1290.5Q874 1300 823 1300H563V199Q563 149 591.0 124.5Q619 100 676 100H852Q920 100 970.0 122.5Q1020 145 1065.5 208.5Q1111 272 1166 397Q1176 420 1193.0 428.0Q1210 436 1232 433Q1257 429 1267.5 411.0Q1278 393 1271 366L1185 37Q1175 -1 1158.0 -19.0Q1141 -37 1108 -37Q1085 -37 1064.5 -27.5Q1044 -18 1020.0 -9.0Q996 0 961 0H165Q134 0 119.0 12.5Q104 25 104 46Q104 84 146 97L203 110Q228 117 240.5 131.0Q253 145 253 167V1233Q253 1255 240.5 1269.0Q228 1283 203 1290L146 1303Q104 1316 104 1354Z"/>
</g></svg>
